<?xml version="1.0" encoding="UTF-8" standalone="no"?>
<!DOCTYPE svg PUBLIC "-//W3C//DTD SVG 1.1//EN"
 "http://www.w3.org/Graphics/SVG/1.1/DTD/svg11.dtd">
<!-- Generated by graphviz version 2.50.0 (0)
 -->
<!-- Pages: 1 -->
<svg width="6000pt" height="5595pt"
 viewBox="0.00 0.00 864.00 805.72" xmlns="http://www.w3.org/2000/svg" xmlns:xlink="http://www.w3.org/1999/xlink">
<g id="graph0" class="graph" transform="scale(6.78 6.78) rotate(0) translate(144 681.3)">
<polygon fill="white" stroke="transparent" points="-144,144 -144,-681.3 741,-681.3 741,144 -144,144"/>
<g id="clust1" class="cluster">
<title>cluster_互联网</title>
<path fill="#e5f5fd" stroke="#aeb6be" d="M20,-199.42C20,-199.42 77,-199.42 77,-199.42 83,-199.42 89,-205.42 89,-211.42 89,-211.42 89,-368.24 89,-368.24 89,-374.24 83,-380.24 77,-380.24 77,-380.24 20,-380.24 20,-380.24 14,-380.24 8,-374.24 8,-368.24 8,-368.24 8,-211.42 8,-211.42 8,-205.42 14,-199.42 20,-199.42"/>
<text text-anchor="middle" x="34.5" y="-366.64" font-family="Sans-Serif" font-size="12.00" fill="#2d3436">互联网</text>
</g>
<g id="clust2" class="cluster">
<title>cluster_企业网络</title>
<path fill="#e5f5fd" stroke="#aeb6be" d="M123,-8.27C123,-8.27 577,-8.27 577,-8.27 583,-8.27 589,-14.27 589,-20.27 589,-20.27 589,-517.03 589,-517.03 589,-523.03 583,-529.03 577,-529.03 577,-529.03 123,-529.03 123,-529.03 117,-529.03 111,-523.03 111,-517.03 111,-517.03 111,-20.27 111,-20.27 111,-14.27 117,-8.27 123,-8.27"/>
<text text-anchor="middle" x="143.5" y="-515.43" font-family="Sans-Serif" font-size="12.00" fill="#2d3436">企业网络</text>
</g>
<g id="clust3" class="cluster">
<title>cluster_内部网络</title>
<path fill="#ebf3e7" stroke="#aeb6be" d="M250,-16.53C250,-16.53 569,-16.53 569,-16.53 575,-16.53 581,-22.53 581,-28.53 581,-28.53 581,-487.07 581,-487.07 581,-493.07 575,-499.07 569,-499.07 569,-499.07 250,-499.07 250,-499.07 244,-499.07 238,-493.07 238,-487.07 238,-487.07 238,-28.53 238,-28.53 238,-22.53 244,-16.53 250,-16.53"/>
<text text-anchor="middle" x="270.5" y="-485.47" font-family="Sans-Serif" font-size="12.00" fill="#2d3436">内部网络</text>
</g>
<g id="clust4" class="cluster">
<title>cluster_交换区</title>
<path fill="#ece8f6" stroke="#aeb6be" d="M258,-199.42C258,-199.42 315,-199.42 315,-199.42 321,-199.42 327,-205.42 327,-211.42 327,-211.42 327,-368.24 327,-368.24 327,-374.24 321,-380.24 315,-380.24 315,-380.24 258,-380.24 258,-380.24 252,-380.24 246,-374.24 246,-368.24 246,-368.24 246,-211.42 246,-211.42 246,-205.42 252,-199.42 258,-199.42"/>
<text text-anchor="middle" x="272.5" y="-366.64" font-family="Sans-Serif" font-size="12.00" fill="#2d3436">交换区</text>
</g>
<g id="clust5" class="cluster">
<title>cluster_园区网</title>
<path fill="#ece8f6" stroke="#aeb6be" d="M377,-24.8C377,-24.8 553,-24.8 553,-24.8 559,-24.8 565,-30.8 565,-36.8 565,-36.8 565,-193.62 565,-193.62 565,-199.62 559,-205.62 553,-205.62 553,-205.62 377,-205.62 377,-205.62 371,-205.62 365,-199.62 365,-193.62 365,-193.62 365,-36.8 365,-36.8 365,-30.8 371,-24.8 377,-24.8"/>
<text text-anchor="middle" x="391.5" y="-192.02" font-family="Sans-Serif" font-size="12.00" fill="#2d3436">园区网</text>
</g>
<g id="clust6" class="cluster">
<title>cluster_数据中心</title>
<path fill="#ece8f6" stroke="#aeb6be" d="M369,-250.05C369,-250.05 561,-250.05 561,-250.05 567,-250.05 573,-256.05 573,-262.05 573,-262.05 573,-457.1 573,-457.1 573,-463.1 567,-469.1 561,-469.1 561,-469.1 369,-469.1 369,-469.1 363,-469.1 357,-463.1 357,-457.1 357,-457.1 357,-262.05 357,-262.05 357,-256.05 363,-250.05 369,-250.05"/>
<text text-anchor="middle" x="389.5" y="-455.5" font-family="Sans-Serif" font-size="12.00" fill="#2d3436">数据中心</text>
</g>
<g id="clust7" class="cluster">
<title>cluster_业务应用区</title>
<path fill="#fdf7e3" stroke="#aeb6be" d="M377,-258.32C377,-258.32 553,-258.32 553,-258.32 559,-258.32 565,-264.32 565,-270.32 565,-270.32 565,-427.14 565,-427.14 565,-433.14 559,-439.14 553,-439.14 553,-439.14 377,-439.14 377,-439.14 371,-439.14 365,-433.14 365,-427.14 365,-427.14 365,-270.32 365,-270.32 365,-264.32 371,-258.32 377,-258.32"/>
<text text-anchor="middle" x="403.5" y="-425.54" font-family="Sans-Serif" font-size="12.00" fill="#2d3436">业务应用区</text>
</g>
<g id="clust9" class="cluster">
<title>cluster_网络周界</title>
<path fill="#ebf3e7" stroke="#aeb6be" d="M131,-191.15C131,-191.15 204,-191.15 204,-191.15 210,-191.15 216,-197.15 216,-203.15 216,-203.15 216,-398.21 216,-398.21 216,-404.21 210,-410.21 204,-410.21 204,-410.21 131,-410.21 131,-410.21 125,-410.21 119,-404.21 119,-398.21 119,-398.21 119,-203.15 119,-203.15 119,-197.15 125,-191.15 131,-191.15"/>
<text text-anchor="middle" x="151.5" y="-396.61" font-family="Sans-Serif" font-size="12.00" fill="#2d3436">网络周界</text>
</g>
<g id="clust10" class="cluster">
<title>cluster_DMZ</title>
<path fill="#ece8f6" stroke="#aeb6be" d="M139,-199.42C139,-199.42 196,-199.42 196,-199.42 202,-199.42 208,-205.42 208,-211.42 208,-211.42 208,-368.24 208,-368.24 208,-374.24 202,-380.24 196,-380.24 196,-380.24 139,-380.24 139,-380.24 133,-380.24 127,-374.24 127,-368.24 127,-368.24 127,-211.42 127,-211.42 127,-205.42 133,-199.42 139,-199.42"/>
<text text-anchor="middle" x="148.5" y="-366.64" font-family="Sans-Serif" font-size="12.00" fill="#2d3436">DMZ</text>
</g>
<!-- 15ff0d44f9114104a227585a56fe4d2f -->
<g id="node1" class="node">
<title>15ff0d44f9114104a227585a56fe4d2f</title>
<image xlink:href="static/custom_icon/cloud.png" width="65px" height="45.5px" preserveAspectRatio="xMinYMin meet" x="15.5" y="-301.545"/>
<text text-anchor="middle" x="48" y="-213.49" font-family="Sans-Serif" font-size="11.00" fill="#2d3436">云</text>
</g>
<!-- a17399901e2b4e5fac0e8e20209bad33 -->
<g id="node7" class="node">
<title>a17399901e2b4e5fac0e8e20209bad33</title>
<image xlink:href="static/custom_icon/firewall-blue.png" width="65px" height="57.7778px" preserveAspectRatio="xMinYMin meet" x="134.5" y="-307.684"/>
<text text-anchor="middle" x="167" y="-213.49" font-family="Sans-Serif" font-size="11.00" fill="#2d3436">防火墙</text>
</g>
<!-- 15ff0d44f9114104a227585a56fe4d2f&#45;&gt;a17399901e2b4e5fac0e8e20209bad33 -->
<g id="edge8" class="edge">
<title>15ff0d44f9114104a227585a56fe4d2f&#45;&gt;a17399901e2b4e5fac0e8e20209bad33</title>
<path fill="none" stroke="#7b8894" stroke-dasharray="5,2" d="M80.52,-278.79C97.17,-278.79 117.4,-278.79 134.11,-278.79"/>
</g>
<!-- 0c8ebde2ae894d8aaa165236799cc521 -->
<g id="node2" class="node">
<title>0c8ebde2ae894d8aaa165236799cc521</title>
<image xlink:href="static/custom_icon/laptop.png" width="65px" height="41.3636px" preserveAspectRatio="xMinYMin meet" x="372.5" y="-125.476"/>
<text text-anchor="middle" x="405" y="-39.49" font-family="Sans-Serif" font-size="11.00" fill="#2d3436">笔记本</text>
</g>
<!-- c0a8e899acad4415ba034661fbb36fd0 -->
<g id="node3" class="node">
<title>c0a8e899acad4415ba034661fbb36fd0</title>
<image xlink:href="static/custom_icon/desktop.png" width="65px" height="58.5px" preserveAspectRatio="xMinYMin meet" x="491.5" y="-134.045"/>
<text text-anchor="middle" x="524" y="-39.49" font-family="Sans-Serif" font-size="11.00" fill="#2d3436">电脑</text>
</g>
<!-- 0c8ebde2ae894d8aaa165236799cc521&#45;&gt;c0a8e899acad4415ba034661fbb36fd0 -->
<!-- 8c80a10b171d4c82b7f7fcc00e9c9c1f -->
<g id="node4" class="node">
<title>8c80a10b171d4c82b7f7fcc00e9c9c1f</title>
<image xlink:href="static/custom_icon/core_switch.png" width="65px" height="39px" preserveAspectRatio="xMinYMin meet" x="253.5" y="-298.295"/>
<text text-anchor="middle" x="286" y="-213.49" font-family="Sans-Serif" font-size="11.00" fill="#2d3436">核心交换机</text>
</g>
<!-- 8c80a10b171d4c82b7f7fcc00e9c9c1f&#45;&gt;0c8ebde2ae894d8aaa165236799cc521 -->
<g id="edge3" class="edge">
<title>8c80a10b171d4c82b7f7fcc00e9c9c1f&#45;&gt;0c8ebde2ae894d8aaa165236799cc521</title>
<path fill="none" stroke="#7b8894" d="M318.52,-225.04C353.75,-225.04 405,-225.04 405,-225.04 405,-225.04 405,-200.35 405,-173.35"/>
</g>
<!-- 8c80a10b171d4c82b7f7fcc00e9c9c1f&#45;&gt;c0a8e899acad4415ba034661fbb36fd0 -->
<g id="edge2" class="edge">
<title>8c80a10b171d4c82b7f7fcc00e9c9c1f&#45;&gt;c0a8e899acad4415ba034661fbb36fd0</title>
<path fill="none" stroke="#7b8894" d="M318.67,-239.79C381.71,-239.79 514,-239.79 514,-239.79 514,-239.79 514,-206.83 514,-173.48"/>
</g>
<!-- fc65d605b82445b9a588962462ca1c75 -->
<g id="node5" class="node">
<title>fc65d605b82445b9a588962462ca1c75</title>
<image xlink:href="static/custom_icon/server.png" width="65px" height="65px" preserveAspectRatio="xMinYMin meet" x="372.5" y="-370.295"/>
<text text-anchor="middle" x="405" y="-272.49" font-family="Sans-Serif" font-size="11.00" fill="#2d3436">服务器</text>
</g>
<!-- 8c80a10b171d4c82b7f7fcc00e9c9c1f&#45;&gt;fc65d605b82445b9a588962462ca1c75 -->
<g id="edge6" class="edge">
<title>8c80a10b171d4c82b7f7fcc00e9c9c1f&#45;&gt;fc65d605b82445b9a588962462ca1c75</title>
<path fill="none" stroke="#7b8894" d="M318.52,-308.29C335.17,-308.29 355.4,-308.29 372.11,-308.29"/>
</g>
<!-- 64665b0cbd2b4f058ac5dc96c5bc4b47 -->
<g id="node6" class="node">
<title>64665b0cbd2b4f058ac5dc96c5bc4b47</title>
<image xlink:href="static/custom_icon/DB.png" width="65px" height="65px" preserveAspectRatio="xMinYMin meet" x="491.5" y="-370.295"/>
<text text-anchor="middle" x="524" y="-272.49" font-family="Sans-Serif" font-size="11.00" fill="#2d3436">数据库</text>
</g>
<!-- 8c80a10b171d4c82b7f7fcc00e9c9c1f&#45;&gt;64665b0cbd2b4f058ac5dc96c5bc4b47 -->
<g id="edge5" class="edge">
<title>8c80a10b171d4c82b7f7fcc00e9c9c1f&#45;&gt;64665b0cbd2b4f058ac5dc96c5bc4b47</title>
<path fill="none" stroke="#7b8894" d="M318.55,-254.54C386.05,-254.54 535,-254.54 535,-254.54 535,-254.54 535,-260.42 535,-269.05"/>
</g>
<!-- fc65d605b82445b9a588962462ca1c75&#45;&gt;64665b0cbd2b4f058ac5dc96c5bc4b47 -->
<!-- a17399901e2b4e5fac0e8e20209bad33&#45;&gt;8c80a10b171d4c82b7f7fcc00e9c9c1f -->
<g id="edge7" class="edge">
<title>a17399901e2b4e5fac0e8e20209bad33&#45;&gt;8c80a10b171d4c82b7f7fcc00e9c9c1f</title>
<path fill="none" stroke="#7b8894" d="M199.52,-278.79C216.17,-278.79 236.4,-278.79 253.11,-278.79"/>
</g>
</g>
</svg>
