<?xml version="1.0" encoding="UTF-8" standalone="no"?>
<!DOCTYPE svg PUBLIC "-//W3C//DTD SVG 1.1//EN"
 "http://www.w3.org/Graphics/SVG/1.1/DTD/svg11.dtd">
<!-- Generated by graphviz version 2.50.0 (0)
 -->
<!-- Pages: 1 -->
<svg width="6000pt" height="5562pt"
 viewBox="0.00 0.00 864.00 800.87" xmlns="http://www.w3.org/2000/svg" xmlns:xlink="http://www.w3.org/1999/xlink">
<g id="graph0" class="graph" transform="scale(5.61 5.61) rotate(0) translate(144 847)">
<polygon fill="white" stroke="transparent" points="-144,144 -144,-847 925.11,-847 925.11,144 -144,144"/>
<g id="clust1" class="cluster">
<title>cluster_互联网</title>
<path fill="#e5f5fd" stroke="#aeb6be" d="M22.47,-70C22.47,-70 104.45,-70 104.45,-70 110.45,-70 116.45,-76 116.45,-82 116.45,-82 116.45,-413 116.45,-413 116.45,-419 110.45,-425 104.45,-425 104.45,-425 22.47,-425 22.47,-425 16.47,-425 10.47,-419 10.47,-413 10.47,-413 10.47,-82 10.47,-82 10.47,-76 16.47,-70 22.47,-70"/>
<text text-anchor="middle" x="36.97" y="-411.4" font-family="Sans-Serif" font-size="12.00" fill="#2d3436">互联网</text>
</g>
<g id="clust2" class="cluster">
<title>cluster_企业网络</title>
<path fill="#e5f5fd" stroke="#aeb6be" d="M157.23,-8C157.23,-8 758.64,-8 758.64,-8 764.64,-8 770.64,-14 770.64,-20 770.64,-20 770.64,-683 770.64,-683 770.64,-689 764.64,-695 758.64,-695 758.64,-695 157.23,-695 157.23,-695 151.23,-695 145.23,-689 145.23,-683 145.23,-683 145.23,-20 145.23,-20 145.23,-14 151.23,-8 157.23,-8"/>
<text text-anchor="middle" x="177.73" y="-681.4" font-family="Sans-Serif" font-size="12.00" fill="#2d3436">企业网络</text>
</g>
<g id="clust3" class="cluster">
<title>cluster_内部网络</title>
<path fill="#ebf3e7" stroke="#aeb6be" d="M323.4,-16C323.4,-16 748.18,-16 748.18,-16 754.18,-16 760.18,-22 760.18,-28 760.18,-28 760.18,-654 760.18,-654 760.18,-660 754.18,-666 748.18,-666 748.18,-666 323.4,-666 323.4,-666 317.4,-666 311.4,-660 311.4,-654 311.4,-654 311.4,-28 311.4,-28 311.4,-22 317.4,-16 323.4,-16"/>
<text text-anchor="middle" x="343.9" y="-652.4" font-family="Sans-Serif" font-size="12.00" fill="#2d3436">内部网络</text>
</g>
<g id="clust4" class="cluster">
<title>cluster_交换区</title>
<path fill="#ece8f6" stroke="#aeb6be" d="M333.86,-70C333.86,-70 415.84,-70 415.84,-70 421.84,-70 427.84,-76 427.84,-82 427.84,-82 427.84,-413 427.84,-413 427.84,-419 421.84,-425 415.84,-425 415.84,-425 333.86,-425 333.86,-425 327.86,-425 321.86,-419 321.86,-413 321.86,-413 321.86,-82 321.86,-82 321.86,-76 327.86,-70 333.86,-70"/>
<text text-anchor="middle" x="348.36" y="-411.4" font-family="Sans-Serif" font-size="12.00" fill="#2d3436">交换区</text>
</g>
<g id="clust5" class="cluster">
<title>cluster_园区网</title>
<path fill="#ece8f6" stroke="#aeb6be" d="M489.56,-24C489.56,-24 727.24,-24 727.24,-24 733.24,-24 739.24,-30 739.24,-36 739.24,-36 739.24,-187 739.24,-187 739.24,-193 733.24,-199 727.24,-199 727.24,-199 489.56,-199 489.56,-199 483.56,-199 477.56,-193 477.56,-187 477.56,-187 477.56,-36 477.56,-36 477.56,-30 483.56,-24 489.56,-24"/>
<text text-anchor="middle" x="504.06" y="-185.4" font-family="Sans-Serif" font-size="12.00" fill="#2d3436">园区网</text>
</g>
<g id="clust6" class="cluster">
<title>cluster_数据中心</title>
<path fill="#ece8f6" stroke="#aeb6be" d="M479.1,-242C479.1,-242 737.71,-242 737.71,-242 743.71,-242 749.71,-248 749.71,-254 749.71,-254 749.71,-625 749.71,-625 749.71,-631 743.71,-637 737.71,-637 737.71,-637 479.1,-637 479.1,-637 473.1,-637 467.1,-631 467.1,-625 467.1,-625 467.1,-254 467.1,-254 467.1,-248 473.1,-242 479.1,-242"/>
<text text-anchor="middle" x="499.6" y="-623.4" font-family="Sans-Serif" font-size="12.00" fill="#2d3436">数据中心</text>
</g>
<g id="clust7" class="cluster">
<title>cluster_业务应用区</title>
<path fill="#fdf7e3" stroke="#aeb6be" d="M489.56,-433C489.56,-433 727.24,-433 727.24,-433 733.24,-433 739.24,-439 739.24,-445 739.24,-445 739.24,-596 739.24,-596 739.24,-602 733.24,-608 727.24,-608 727.24,-608 489.56,-608 489.56,-608 483.56,-608 477.56,-602 477.56,-596 477.56,-596 477.56,-445 477.56,-445 477.56,-439 483.56,-433 489.56,-433"/>
<text text-anchor="middle" x="516.06" y="-594.4" font-family="Sans-Serif" font-size="12.00" fill="#2d3436">业务应用区</text>
</g>
<g id="clust8" class="cluster">
<title>cluster_安全管理区</title>
<path fill="#fdf7e3" stroke="#aeb6be" d="M489.56,-250C489.56,-250 571.54,-250 571.54,-250 577.54,-250 583.54,-256 583.54,-262 583.54,-262 583.54,-413 583.54,-413 583.54,-419 577.54,-425 571.54,-425 571.54,-425 489.56,-425 489.56,-425 483.56,-425 477.56,-419 477.56,-413 477.56,-413 477.56,-262 477.56,-262 477.56,-256 483.56,-250 489.56,-250"/>
<text text-anchor="middle" x="516.06" y="-411.4" font-family="Sans-Serif" font-size="12.00" fill="#2d3436">安全管理区</text>
</g>
<g id="clust9" class="cluster">
<title>cluster_网络周界</title>
<path fill="#ebf3e7" stroke="#aeb6be" d="M167.7,-242C167.7,-242 270.61,-242 270.61,-242 276.61,-242 282.61,-248 282.61,-254 282.61,-254 282.61,-442 282.61,-442 282.61,-448 276.61,-454 270.61,-454 270.61,-454 167.7,-454 167.7,-454 161.7,-454 155.7,-448 155.7,-442 155.7,-442 155.7,-254 155.7,-254 155.7,-248 161.7,-242 167.7,-242"/>
<text text-anchor="middle" x="188.2" y="-440.4" font-family="Sans-Serif" font-size="12.00" fill="#2d3436">网络周界</text>
</g>
<g id="clust10" class="cluster">
<title>cluster_DMZ</title>
<path fill="#ece8f6" stroke="#aeb6be" d="M178.17,-250C178.17,-250 260.15,-250 260.15,-250 266.15,-250 272.15,-256 272.15,-262 272.15,-262 272.15,-413 272.15,-413 272.15,-419 266.15,-425 260.15,-425 260.15,-425 178.17,-425 178.17,-425 172.17,-425 166.17,-419 166.17,-413 166.17,-413 166.17,-262 166.17,-262 166.17,-256 172.17,-250 178.17,-250"/>
<text text-anchor="middle" x="187.67" y="-411.4" font-family="Sans-Serif" font-size="12.00" fill="#2d3436">DMZ</text>
</g>
<!-- 1a40293a0eee43459225ba9f5d0cee62 -->
<g id="node1" class="node">
<title>1a40293a0eee43459225ba9f5d0cee62</title>
<image xlink:href="static/custom_icon/cloud.png" width="65px" height="45.5px" preserveAspectRatio="xMinYMin meet" x="31.144" y="-349.75"/>
<text text-anchor="middle" x="63.64" y="-261.7" font-family="Sans-Serif" font-size="11.00" fill="#2d3436">云</text>
</g>
<!-- 067c4f562fd0423282ee3f5b70e43900 -->
<g id="node2" class="node">
<title>067c4f562fd0423282ee3f5b70e43900</title>
<image xlink:href="static/custom_icon/HostEPP-red.png" width="65px" height="73.125px" preserveAspectRatio="xMinYMin meet" x="31.144" y="-183.562"/>
<text text-anchor="middle" x="63.64" y="-81.7" font-family="Sans-Serif" font-size="11.00" fill="#2d3436">椒图&#45;主机安全</text>
</g>
<!-- 1a40293a0eee43459225ba9f5d0cee62&#45;&gt;067c4f562fd0423282ee3f5b70e43900 -->
<g id="edge1" class="edge">
<title>1a40293a0eee43459225ba9f5d0cee62&#45;&gt;067c4f562fd0423282ee3f5b70e43900</title>
<path fill="none" stroke="#7b8894" d="M63.64,-258.44C63.64,-244.43 63.64,-229.68 63.64,-215.67"/>
</g>
<!-- aef55ae76441493ea14237d882797736 -->
<g id="node10" class="node">
<title>aef55ae76441493ea14237d882797736</title>
<image xlink:href="static/custom_icon/firewall-blue.png" width="65px" height="57.7778px" preserveAspectRatio="xMinYMin meet" x="187.144" y="-355.889"/>
<text text-anchor="middle" x="219.64" y="-261.7" font-family="Sans-Serif" font-size="11.00" fill="#2d3436">防火墙</text>
</g>
<!-- 1a40293a0eee43459225ba9f5d0cee62&#45;&gt;aef55ae76441493ea14237d882797736 -->
<g id="edge11" class="edge">
<title>1a40293a0eee43459225ba9f5d0cee62&#45;&gt;aef55ae76441493ea14237d882797736</title>
<path fill="none" stroke="#7b8894" stroke-dasharray="5,2" d="M96.35,-327C122.97,-327 160.37,-327 186.98,-327"/>
</g>
<!-- e030bece44c2461080a67735a9a7b321 -->
<g id="node3" class="node">
<title>e030bece44c2461080a67735a9a7b321</title>
<image xlink:href="static/custom_icon/core_switch.png" width="65px" height="39px" preserveAspectRatio="xMinYMin meet" x="342.144" y="-346.5"/>
<text text-anchor="middle" x="374.64" y="-261.7" font-family="Sans-Serif" font-size="11.00" fill="#2d3436">核心交换机</text>
</g>
<!-- 2677fca262474acf90fec8b381b8b54c -->
<g id="node4" class="node">
<title>2677fca262474acf90fec8b381b8b54c</title>
<image xlink:href="static/custom_icon/WAF-red.png" width="65px" height="65px" preserveAspectRatio="xMinYMin meet" x="342.144" y="-179.5"/>
<text text-anchor="middle" x="374.64" y="-81.7" font-family="Sans-Serif" font-size="11.00" fill="#2d3436">WAF</text>
</g>
<!-- e030bece44c2461080a67735a9a7b321&#45;&gt;2677fca262474acf90fec8b381b8b54c -->
<g id="edge2" class="edge">
<title>e030bece44c2461080a67735a9a7b321&#45;&gt;2677fca262474acf90fec8b381b8b54c</title>
<path fill="none" stroke="#7b8894" d="M358.64,-258.44C358.64,-244.43 358.64,-229.68 358.64,-215.67"/>
</g>
<!-- 3684f3ccf46b448c94e41cd37b46dc5c -->
<g id="node5" class="node">
<title>3684f3ccf46b448c94e41cd37b46dc5c</title>
<image xlink:href="static/custom_icon/laptop-EDR.png" width="65px" height="52.963px" preserveAspectRatio="xMinYMin meet" x="498.144" y="-127.481"/>
<text text-anchor="middle" x="530.64" y="-35.7" font-family="Sans-Serif" font-size="11.00" fill="#2d3436">笔记本</text>
</g>
<!-- e030bece44c2461080a67735a9a7b321&#45;&gt;3684f3ccf46b448c94e41cd37b46dc5c -->
<g id="edge5" class="edge">
<title>e030bece44c2461080a67735a9a7b321&#45;&gt;3684f3ccf46b448c94e41cd37b46dc5c</title>
<path fill="none" stroke="#7b8894" d="M374.64,-258.46C374.64,-242.38 374.64,-229.83 374.64,-229.83 374.64,-229.83 530.64,-229.83 530.64,-229.83 530.64,-229.83 530.64,-200.33 530.64,-169.57"/>
</g>
<!-- fc1201280c07433c8e78806113955947 -->
<g id="node6" class="node">
<title>fc1201280c07433c8e78806113955947</title>
<image xlink:href="static/custom_icon/desktop-EDR.png" width="65px" height="55.3704px" preserveAspectRatio="xMinYMin meet" x="654.144" y="-128.685"/>
<text text-anchor="middle" x="686.64" y="-35.7" font-family="Sans-Serif" font-size="11.00" fill="#2d3436">电脑</text>
</g>
<!-- e030bece44c2461080a67735a9a7b321&#45;&gt;fc1201280c07433c8e78806113955947 -->
<g id="edge4" class="edge">
<title>e030bece44c2461080a67735a9a7b321&#45;&gt;fc1201280c07433c8e78806113955947</title>
<path fill="none" stroke="#7b8894" d="M391.64,-258.22C391.64,-249.84 391.64,-244.17 391.64,-244.17 391.64,-244.17 676.64,-244.17 676.64,-244.17 676.64,-244.17 676.64,-206.39 676.64,-169.65"/>
</g>
<!-- 1a31540e82ee48b1a146bfc167d575ac -->
<g id="node7" class="node">
<title>1a31540e82ee48b1a146bfc167d575ac</title>
<image xlink:href="static/custom_icon/server-EDR.png" width="65px" height="67.8261px" preserveAspectRatio="xMinYMin meet" x="498.144" y="-543.913"/>
<text text-anchor="middle" x="530.64" y="-444.7" font-family="Sans-Serif" font-size="11.00" fill="#2d3436">服务器</text>
</g>
<!-- e030bece44c2461080a67735a9a7b321&#45;&gt;1a31540e82ee48b1a146bfc167d575ac -->
<g id="edge8" class="edge">
<title>e030bece44c2461080a67735a9a7b321&#45;&gt;1a31540e82ee48b1a146bfc167d575ac</title>
<path fill="none" stroke="#7b8894" d="M385.64,-395.66C385.64,-447.59 385.64,-510 385.64,-510 385.64,-510 455.35,-510 498.1,-510"/>
</g>
<!-- 673f5f08cb9c4bfbb5cf197ffba1e2e0 -->
<g id="node8" class="node">
<title>673f5f08cb9c4bfbb5cf197ffba1e2e0</title>
<image xlink:href="static/custom_icon/DB.png" width="65px" height="65px" preserveAspectRatio="xMinYMin meet" x="654.144" y="-542.5"/>
<text text-anchor="middle" x="686.64" y="-444.7" font-family="Sans-Serif" font-size="11.00" fill="#2d3436">数据库</text>
</g>
<!-- e030bece44c2461080a67735a9a7b321&#45;&gt;673f5f08cb9c4bfbb5cf197ffba1e2e0 -->
<g id="edge7" class="edge">
<title>e030bece44c2461080a67735a9a7b321&#45;&gt;673f5f08cb9c4bfbb5cf197ffba1e2e0</title>
<path fill="none" stroke="#7b8894" d="M364.64,-395.88C364.64,-408.88 364.64,-418.5 364.64,-418.5 364.64,-418.5 697.64,-418.5 697.64,-418.5 697.64,-418.5 697.64,-428.12 697.64,-441.12"/>
</g>
<!-- 4e8cb5a53cfa4160ad87ca9515bdbe2d -->
<g id="node9" class="node">
<title>4e8cb5a53cfa4160ad87ca9515bdbe2d</title>
<image xlink:href="static/custom_icon/EDR-red.png" width="65px" height="65px" preserveAspectRatio="xMinYMin meet" x="498.144" y="-359.5"/>
<text text-anchor="middle" x="530.64" y="-261.7" font-family="Sans-Serif" font-size="11.00" fill="#2d3436">天擎&#45;终端防护及检测响应&#45;EPP/EDR</text>
</g>
<!-- e030bece44c2461080a67735a9a7b321&#45;&gt;4e8cb5a53cfa4160ad87ca9515bdbe2d -->
<g id="edge9" class="edge">
<title>e030bece44c2461080a67735a9a7b321&#45;&gt;4e8cb5a53cfa4160ad87ca9515bdbe2d</title>
<path fill="none" stroke="#7b8894" d="M407.35,-327C433.97,-327 471.37,-327 497.98,-327"/>
</g>
<!-- 3684f3ccf46b448c94e41cd37b46dc5c&#45;&gt;fc1201280c07433c8e78806113955947 -->
<!-- 1a31540e82ee48b1a146bfc167d575ac&#45;&gt;673f5f08cb9c4bfbb5cf197ffba1e2e0 -->
<!-- aef55ae76441493ea14237d882797736&#45;&gt;e030bece44c2461080a67735a9a7b321 -->
<g id="edge10" class="edge">
<title>aef55ae76441493ea14237d882797736&#45;&gt;e030bece44c2461080a67735a9a7b321</title>
<path fill="none" stroke="#7b8894" d="M252.52,-327C278.91,-327 315.78,-327 342.09,-327"/>
</g>
</g>
</svg>
